<svg width="24" height="24" viewBox="0 0 24 24" fill="none" xmlns="http://www.w3.org/2000/svg">
    <rect x="4" y="4" width="16" height="16" rx="8" fill="#677484"/>
    <path fill-rule="evenodd" clip-rule="evenodd"
          d="M14.0433 8.33569C14.4909 7.8881 15.2166 7.8881 15.6642 8.33569C16.1118 8.78328 16.1118 9.50896 15.6642 9.95655L13.6209 11.9999L15.6643 14.0433C16.1119 14.4909 16.1119 15.2166 15.6643 15.6642C15.2167 16.1118 14.491 16.1118 14.0435 15.6642L12 13.6207L9.95655 15.6642C9.50896 16.1118 8.78328 16.1118 8.33569 15.6642C7.8881 15.2166 7.8881 14.4909 8.33569 14.0433L10.3791 11.9999L8.33582 9.95655C7.88823 9.50896 7.88823 8.78328 8.33582 8.33569C8.7834 7.8881 9.50908 7.8881 9.95667 8.33569L12 10.379L14.0433 8.33569Z"
          fill="white"/>
</svg>
